<svg width="400px" height="400px" id="zoomi" viewBox="0 0 200 200" xmlns="http://www.w3.org/2000/svg" xmlns:xlink="http://www.w3.org/1999/xlink">

  <title>Card Suits</title>
  <style>
    svg {
      overflow: visible;
      background-color: yellow;
    }

    text a:visited {
      color: red;
    }
  </style>

  <view id="diamond" viewBox="0 0 100 100" />
  <svg height="100" width="100" viewBox="0 0 20 20">
    <title>Diamond</title>
    <path fill="red" d="M3,10L10,0 17,10 10,20Z M9,11L10,18V10H15L11,9 10,2V10H5Z" />
  </svg>

  <view id="square" viewBox="100 100 100 100" />
  <svg x="100" y="100" height="100" width="100" viewBox="0 0 20 20">
    <title>Square</title>
    <path fill="black" d="M9,15C9,20 0,21 0,16S6,9 10,0C14,9 20,11 20,16
    S11,20 11,15Q11,20 13,20H7Q9,20 9,15Z" />
  </svg>

  <view id="club" viewBox="0 100 100 100" />
  <svg x="0" y="100" height="100" width="100" viewBox="0 0 20 20">
    <title>Club</title>
    <path fill="black" d="M9,15.5A5,5 0 1 1 5.5, 7.5
    A5,5 0 1 1 14.5, 7.5A5,5 0 1 1 11, 15.5
    Q11,20 13,20H7Q9,20 9,15.5Z" />
  </svg>

  <view id="heart" viewBox="100 0 100 100" />
  <svg x="100" y="0" height="100" width="100" viewBox="0 0 20 20">
    <title>Heart</title>
    <path fill="red" d="M10,6 Q10,0 15,0T20,6Q20,10 15,14
 T10,20Q10,18 5,14T0,6Q0,0 5,0T10,6Z" />
  </svg>

  <view id="circle" viewBox="50 50 100 100"/>
  <text  x="0" y="50" text-anchor="start" font-size="20" fill="black"><a xlink:href = "#circle">Test</a> </text>
  <svg x="50" y="50" width="100" height="100" viewBox="0 0 20 20">
    <title>Test</title>
    <circle fill="green" cx="50%" cy="50%" r="8"/>
  </svg>
</svg>